<?xml version="1.0" encoding="UTF-8"?>
<svg id="Layer_2" data-name="Layer 2" xmlns="http://www.w3.org/2000/svg" viewBox="0 0 43.86 56.31">
  <defs>
    <style>
      .cls-1, .cls-2 {
        fill: #fff;
      }

      .cls-3 {
        fill: #c2d7f2;
      }

      .cls-2 {
        stroke: #fff;
        stroke-miterlimit: 10;
        stroke-width: .14px;
      }

      .cls-4 {
        fill: #c0daf9;
      }
    </style>
  </defs>
  <g id="Layer_1-2" data-name="Layer 1">
    <g>
      <path class="cls-3" d="M26.41.55c-.43-.27-.93-.27-1.4-.36-.94-.18-1.9-.23-2.85-.17s-1.85.24-2.75.52c-.99.31-1.97.66-2.92,1.15-.44.23-.87.49-1.29.78-.37.25-.75.54-1.02.96-.25.39-.37.9-.27,1.4s.36.89.65,1.22c.69.78,1.6,1.25,2.42,1.74.91.54,1.85,1.04,2.79,1.5,3.77,1.86,7.67,3.26,11.35,5.42,3.44,2.02,6.82,4.81,8.8,9.08.95,2.04,1.55,4.38,1.56,6.78s-.56,4.83-1.5,6.93c-1.9,4.25-5.21,7.11-8.62,9.07-.93.53-1.87,1-2.84,1.4-.23.09-.45.18-.68.27-.01,0-.35.15-.36.13,0,0,.22-.07.03-.01-.07.02-.14.04-.21.07-.51.16-1.02.3-1.54.42-1.96.47-3.96.68-5.96.63-3.93-.1-8.04-1.12-11.4-3.88-1.49-1.22-2.81-2.79-3.83-4.65-1.12-2.07-1.77-4.47-2.04-6.97-.5-4.61.16-10.06,3.47-12.72.34-.27.7-.49,1.06-.68.12-.06.46-.31.46-.31-.79.05-.6.15-1.02.29-.48.16-.59.29-1.05.53-.77.41-.99.91-1.59,1.66-1.34,1.68-2.02,3.99-2.29,6.34-.28,2.55-.11,5.25.44,7.72.52,2.34,1.47,4.46,2.77,6.24,2.69,3.69,6.49,5.57,10.31,6.32s8.07.44,11.98-.87,7.59-3.23,10.63-6.53c2.87-3.13,5-7.77,4.63-12.76-.37-4.99-3.03-9.09-6.14-11.83-3.33-2.94-7.2-4.65-10.98-6.33-1.93-.85-3.87-1.7-5.75-2.7-.94-.5-1.87-1.04-2.78-1.63-.7-.46-1.57-1.05-1.85-2.08-.3-1.13.47-1.92,1.15-2.41.87-.61,1.79-1.1,2.74-1.46.28-.11-.25.08-.25.08.07,0,.15-.05.22-.07.11-.03.22-.06.33-.09.26-.07.52-.13.79-.18.47-.09.95-.15,1.42-.18.98-.07,1.65.04,2.61.22.45.09.98.23,1.44.41.29.11.88.23.8.77,0,0,.64-.15.68-.16.05-.02.51-.12.51-.12.07-.3-.63-.76-.87-.91Z"/>
      <path class="cls-1" d="M18.59.9c.11-.03.4-.12.51-.15.27-.07.66-.17.94-.22.49-.09.61-.12,1.11-.15,1.02-.07,2.04,0,3.04.18.47.09.93.2,1.39.34.3.09.94.25.85.79.03,0,.44-.1.48-.11.05-.02.51-.13.51-.13l-.04-.06c.08-.54-.54-.7-.85-.79-.48-.15-.97-.27-1.46-.36-.98-.18-1.98-.23-2.97-.17s-1.93.24-2.87.52c-1.03.31-2.06.66-3.04,1.15-.46.23-.91.49-1.34.78-.39.25-.78.54-1.07.96-.27.39-.39.9-.29,1.4s.38.89.68,1.22c.72.78,1.67,1.25,2.53,1.74.95.54,1.92,1.04,2.9,1.5,3.92,1.86,7.99,3.26,11.82,5.42,3.58,2.02,7.11,4.81,9.17,9.08.99,2.04,1.61,4.38,1.63,6.78s-.58,4.83-1.56,6.93c-1.98,4.25-5.43,7.11-8.98,9.07-.96.53-1.95,1-2.96,1.4-.24.09-.47.18-.71.27-.01,0-.37.15-.38.13,0,0,.22-.07.03-.01-.07.02-.14.04-.22.07-.53.16-1.07.3-1.6.42-2.04.47-4.13.68-6.21.63-4.1-.1-8.38-1.12-11.87-3.88-1.55-1.22-2.93-2.79-3.99-4.65-1.17-2.07-1.85-4.47-2.13-6.97-.52-4.61.16-10.06,3.62-12.72.35-.27.71-.53,1.11-.68.06-.02.17-.05.23-.06.15-.03.22,0,.37-.06s.33-.18.48-.19c-.46.04-.84.12-1.28.27-.5.16-1,.32-1.47.56-.8.41-.99.92-1.61,1.67-1.39,1.68-2.15,3.97-2.43,6.33-.3,2.55-.11,5.25.46,7.72.54,2.34,1.53,4.46,2.88,6.24,2.81,3.69,6.76,5.57,10.74,6.32s8.41.44,12.48-.87,7.91-3.23,11.07-6.53c2.99-3.13,5.21-7.77,4.82-12.76s-3.16-9.09-6.39-11.83c-3.47-2.94-7.5-4.65-11.44-6.33-2.01-.85-4.03-1.7-5.99-2.7-.98-.5-1.95-1.04-2.9-1.63-.73-.46-1.64-1.05-1.92-2.08-.31-1.13.49-1.92,1.2-2.41.9-.61,1.64-.93,2.63-1.29"/>
      <path class="cls-1" d="M27.59,1.36c.09-.54-.56-.7-.87-.79-.5-.15-1-.31-1.51-.39-1.02-.17-2.02-.21-3.05-.15-1.96.13-3.99.74-5.81,1.63-.48.23-.94.5-1.4.79-.4.26-.81.54-1.11.96-.28.39-.41.9-.3,1.41s.39.89.7,1.21c.74.77,1.72,1.24,2.61,1.73.99.54,1.99,1.03,3,1.49,4.06,1.84,8.27,3.22,12.24,5.36,3.73,2.02,7.39,4.81,9.51,9.11,1.01,2.05,1.64,4.4,1.62,6.79s-.65,4.84-1.68,6.93c-2.08,4.25-5.67,7.12-9.38,9.09-2.03,1.08-4.14,1.9-6.33,2.4s-4.31.72-6.48.68c-4.24-.08-8.67-1.07-12.28-3.82-1.6-1.22-3.03-2.77-4.12-4.63-1.21-2.07-1.9-4.48-2.18-6.96-.52-4.63.21-10.08,3.8-12.75.36-.27.75-.5,1.15-.69.12-.05.23-.1.35-.15.24-.1-.36.09-.11.03.06-.01.12-.03.18-.04.23-.05.46-.09.7-.11.21-.02.42-.18.63-.2-.86.07-1.76.35-2.56.75-.84.42-1.59,1.05-2.24,1.8-1.45,1.69-2.25,3.99-2.54,6.35-.32,2.55-.14,5.25.45,7.73.55,2.34,1.57,4.46,2.97,6.23,2.9,3.68,7,5.54,11.12,6.27s8.63.4,12.8-.9,8.02-3.25,11.23-6.47,5.46-7.77,5.11-12.77-3.21-9.12-6.57-11.87c-3.59-2.94-7.77-4.64-11.87-6.29-2.08-.84-4.17-1.68-6.21-2.67-1.02-.49-2.02-1.03-3-1.62-.76-.46-1.7-1.05-1.99-2.07-.32-1.13.51-1.93,1.25-2.42.94-.62,1.94-1.12,2.97-1.48.2-.07.39-.13.68-.2s.57-.13.86-.19c.51-.09,1.02-.16,1.54-.19,1.05-.07,2.11-.02,3.16.16.49.08.97.2,1.44.34.31.09.97.24.88.78.02,0,.28-.07.31-.08.03-.01.31-.07.31-.1h0Z"/>
      <g>
        <path class="cls-2" d="M28.04,26.95c.03-.15.07-.3.11-.46.24-.63.47-1.25.71-1.88-.12.03-.24.06-.36.09,0,0,0,0,0,0-.03,0-.05,0-.06.01-.06.01-.4.05-.42.11-.29.6-.52,1.21-.69,1.84-.89,2.32-1.84,4.63-3.11,6.79-.21-3.27-.08-6.55.41-9.8-.11.03-.23.06-.34.09,0,0,0,0,0,0-.04,0-.07.01-.07.01-.07.02-.39.05-.42.11-1.06,1.98-2.06,4-2.96,6.04.01-1.44.03-2.88.05-4.32.06-3.55.2-7.1.6-10.64.4-3.52,1.02-7.02,1.66-10.51.08-.44.16-.88.24-1.33,0,.02-.39.09-.43.1-.04.01-.42.07-.42.11-.64,3.49-1.28,6.98-1.73,10.5-.46,3.55-.66,7.11-.74,10.68-.06,2.49-.06,4.97-.1,7.46-.54,1.32-1.03,2.65-1.49,3.99-1.39,4.16-2.33,8.45-2.62,12.79-.16,2.47-.1,4.94.19,7.4h0c.12-.03.23-.06.35-.09.23-.04.48-.08.5-.12,1.37-3.07,2.26-6.3,2.83-9.57.58-3.34.85-6.72.97-10.09.06-1.51.09-3.01.11-4.52.19-.47.39-.94.59-1.4.67-1.55,1.39-3.08,2.15-4.59-.32,2.97-.35,5.97-.09,8.95.12-.03.24-.06.37-.09h0c.22-.04.45-.08.48-.12,1.07-1.61,1.92-3.32,2.68-5.07,0,1.32.26,2.64.73,3.89.31.82.72,1.61,1.2,2.35.05.07.81-.27.85-.21-1.65-2.52-2.33-5.59-1.71-8.49ZM19.87,35.17c-.1,3.39-.3,6.78-.81,10.14-.47,3.1-1.2,6.18-2.33,9.13-.31-3.87-.05-7.77.69-11.59.57-3,1.43-5.95,2.48-8.83,0,.38-.02.77-.03,1.15Z"/>
        <path class="cls-2" d="M15.96,56.22v-.09c-.29-2.43-.35-4.92-.19-7.41.27-4.1,1.15-8.41,2.62-12.81.44-1.33.94-2.67,1.48-3.99.01-.89.02-1.77.03-2.66.01-1.57.03-3.19.07-4.79.09-4.01.33-7.5.74-10.68.45-3.52,1.1-7.07,1.74-10.5.01-.06.05-.08.41-.15.03,0,.05,0,.06-.01,0,0,.05-.01.1-.02.08-.02.28-.06.31-.07l.02.05.08.02c-.07.37-.14.75-.21,1.12l-.04.2c-.61,3.35-1.25,6.93-1.65,10.51-.44,3.87-.55,7.72-.6,10.63-.02,1.34-.03,2.68-.05,3.99.84-1.87,1.76-3.75,2.83-5.75.03-.06.14-.09.38-.13.04,0,.07-.01.08-.01,0,0,.03,0,.06-.01h0s.02,0,.02,0l.44-.11-.02.1c-.48,3.14-.62,6.35-.42,9.56,1.25-2.18,2.17-4.45,2.99-6.59.17-.64.4-1.26.69-1.85.03-.06.14-.09.39-.13.03,0,.06,0,.08-.01,0,0,.01,0,.03,0h.04s.48-.13.48-.13l-.04.12c-.23.63-.47,1.26-.71,1.88-.04.14-.07.29-.11.45h0c-.6,2.8.02,5.88,1.7,8.44h0s-.11.08-.11.08c0,0,0,0,0,0,.01.02.03.02.04.02-.04,0-.22.06-.35.1-.39.13-.48.15-.53.08-.5-.76-.91-1.56-1.21-2.36-.44-1.17-.69-2.38-.73-3.6-.83,1.87-1.64,3.4-2.56,4.79-.04.06-.16.09-.53.15h0c-.07.02-.13.03-.2.05l-.23.06v-.08c-.26-2.87-.24-5.75.04-8.59-.71,1.42-1.38,2.85-1.99,4.25-.21.49-.4.94-.58,1.39-.02,1.75-.06,3.18-.11,4.51-.15,3.93-.46,7.14-.98,10.1-.62,3.57-1.55,6.71-2.83,9.59-.03.07-.14.09-.54.16h-.02s-.43.11-.43.11ZM22.56,3.35c-.63,3.42-1.28,6.96-1.73,10.47-.41,3.18-.65,6.67-.74,10.67-.04,1.59-.05,3.22-.07,4.78,0,.89-.02,1.78-.03,2.67v.02c-.55,1.32-1.04,2.66-1.49,3.99-1.47,4.39-2.35,8.69-2.61,12.77-.16,2.45-.1,4.91.18,7.31l.29-.07c.14-.02.38-.06.44-.09,1.27-2.87,2.2-5.99,2.82-9.54.52-2.95.83-6.16.97-10.08.05-1.33.08-2.76.11-4.52v-.02c.19-.45.38-.91.59-1.4.65-1.51,1.38-3.06,2.16-4.59l.17-.33-.04.37c-.32,2.92-.35,5.9-.09,8.85l.08-.02c.07-.02.14-.03.21-.05h.02c.13-.02.39-.07.43-.1.95-1.45,1.8-3.05,2.67-5.05l.13-.3v.32c0,1.31.25,2.61.73,3.86.3.79.7,1.57,1.18,2.31.07,0,.26-.07.38-.11.13-.05.23-.08.3-.1-1.65-2.58-2.26-5.65-1.66-8.45.03-.15.07-.31.11-.46.23-.59.44-1.18.66-1.77l-.3.07s-.05,0-.09.02c-.07.01-.25.04-.3.07-.28.58-.51,1.19-.68,1.82-.84,2.21-1.8,4.57-3.11,6.81l-.11.19v-.22c-.23-3.26-.09-6.53.38-9.72l-.26.06s-.06.01-.07.01c-.02,0-.06.01-.1.02-.07.01-.26.04-.29.07-1.12,2.09-2.09,4.06-2.95,6.03l-.13.3v-.33c.02-1.41.03-2.87.05-4.32.05-2.92.16-6.77.6-10.64.41-3.59,1.04-7.16,1.66-10.52l.04-.2c.06-.34.12-.67.19-1.01-.05.01-.13.03-.23.05-.04,0-.08.02-.09.02-.01,0-.04,0-.07.01-.06.01-.25.05-.31.07ZM16.68,54.74l-.02-.3c-.3-3.75-.07-7.66.69-11.61.55-2.86,1.38-5.84,2.49-8.84l.14-.38v.41c-.02.38-.03.76-.04,1.13h0c-.11,4.02-.37,7.25-.81,10.16-.52,3.41-1.28,6.4-2.34,9.15l-.11.28ZM19.82,34.43c-1.03,2.87-1.82,5.7-2.34,8.43-.74,3.83-.97,7.62-.71,11.26,1-2.66,1.72-5.55,2.22-8.83.44-2.91.7-6.12.81-10.13h0c0-.25.01-.49.02-.73Z"/>
      </g>
      <g>
        <path class="cls-4" d="M7.67,24.25c-1.23,0-1.89-.36-1.97-1.07v-.03s.04-.1.04-.1c.07-.08.21-.12.32-.12.17,0,.19.1.2.13.02.21.11.37.27.5.27.22.69.33,1.26.33h.16c.58-.02,1.18-.1,1.76-.17l.39-.05c1.5-.19,3-.44,4.47-.75,2.96-.62,5.89-1.48,8.72-2.55,2.85-1.08,5.6-2.39,8.18-3.87,2.03-1.17,4.58-2.82,6.28-5.19.39-.54.8-1.18.93-1.88.09-.49.02-1.07-.22-1.61-.15-.34-.39-.61-.75-.83.06.1.1.2.13.3.07.26,0,.49-.07.73-.09.29-.17.52-.28.72-.21.42-.52.81-.93,1.21-.73.71-1.62,1.27-2.49,1.81l-.62.39c-.36.23-.72.45-1.08.67-.61.36-1.22.71-1.84,1.06-2.79,1.59-5.12,2.79-7.33,3.79-2.59,1.17-5.16,2.11-7.64,2.79l-.37.09-.04-.13c.32-.09.64-.18.96-.27,2.47-.74,4.96-1.7,7.59-2.95,2.17-1.03,4.41-2.22,7.25-3.86.93-.54,1.93-1.15,3.15-1.93.88-.56,1.79-1.18,2.43-2,.31-.4.54-.83.66-1.26.09-.3.14-.47.09-.68-.04-.19-.16-.38-.34-.56-.17-.17-.39-.31-.65-.43-.28-.13-.6-.17-.9-.22-.75-.11-1.45-.16-2.17-.16-2.4.01-4.7.53-6.93,1.03-.56.13-1.11.25-1.67.37l-.03-.13s.3-.08.37-.09c.36-.08,1.74-.38,1.74-.38,2.26-.51,4.6-1.04,6.97-1.04.3,0,.6,0,.9.03.37.02.74.06,1.1.11l.14.02c.25.03.51.07.75.15.27.07.65.17.9.25.33.11.8.29,1.14.64.28.28.47.67.58,1.18.15.68.08,1.34-.23,2-.26.56-.63,1.12-1.2,1.81-1.88,2.28-4.49,3.9-6.8,5.17-2.75,1.52-5.66,2.83-8.65,3.89-2.99,1.06-6.07,1.89-9.15,2.44-1.58.29-3.15.5-4.68.65-.23.02-.52.04-.82.04Z"/>
        <path class="cls-1" d="M33.68,5.94c.3,0,.6,0,.9.03.37.02.73.06,1.1.11.29.04.59.07.87.16,0,0,0,0,.01,0,.27.07.65.16.89.24.41.14.82.32,1.11.62.31.32.47.74.56,1.15.15.68.07,1.32-.23,1.96-.3.64-.73,1.24-1.19,1.79-1.79,2.17-4.27,3.77-6.78,5.16-2.75,1.52-5.64,2.82-8.64,3.89-2.96,1.05-6.02,1.88-9.14,2.44-1.55.28-3.1.5-4.67.65-.23.02-.51.04-.81.04-.85,0-1.81-.17-1.9-1.01-.01-.1.17-.17.29-.17.07,0,.12.02.13.07.02.22.12.4.3.55.34.28.86.34,1.31.34.05,0,.11,0,.16,0,.72-.02,1.44-.13,2.15-.22,1.5-.19,3-.44,4.48-.75,2.98-.62,5.9-1.48,8.73-2.55,2.84-1.08,5.58-2.37,8.19-3.88,2.4-1.38,4.72-3.01,6.3-5.21.42-.58.81-1.21.95-1.91.1-.54,0-1.14-.22-1.65-.22-.5-.61-.8-1.07-1.01.15.15.27.33.33.53.07.25,0,.47-.07.71-.07.24-.15.47-.27.69-.23.44-.55.84-.91,1.19-.78.75-1.73,1.33-2.66,1.91-.51.32-1,.64-1.52.95-.61.36-1.22.71-1.84,1.06-2.38,1.36-4.81,2.65-7.32,3.79-2.46,1.11-5,2.07-7.63,2.79-.11.03-.27.06-.37.09.32-.09.64-.18.96-.28,2.62-.78,5.15-1.79,7.6-2.95,2.49-1.18,4.89-2.5,7.26-3.86,1.07-.62,2.11-1.27,3.15-1.93.9-.57,1.8-1.19,2.45-2.01.3-.39.54-.82.67-1.29.07-.24.15-.46.09-.71-.05-.23-.19-.43-.36-.59-.19-.18-.43-.33-.67-.44-.31-.15-.67-.19-1.01-.23-.69-.1-1.39-.14-2.09-.14-.02,0-.04,0-.06,0-2.91.01-5.73.81-8.55,1.41.1-.02.25-.07.37-.09.36-.08.72-.16,1.08-.24,2.5-.56,5.03-1.18,7.61-1.18M33.68,5.8c-2.37,0-4.72.53-6.99,1.04l-.65.15c-.36.08-.72.16-1.08.24-.07.01-.15.04-.23.06-.05.01-.1.03-.14.04l.06.27c.56-.12,1.11-.24,1.67-.37,2.23-.5,4.53-1.02,6.85-1.03h.06c.72,0,1.41.05,2.07.14h.09c.3.05.62.1.89.22.26.12.47.26.64.42.17.17.28.34.32.52.04.19,0,.35-.06.55l-.03.1c-.12.43-.34.85-.65,1.24-.63.81-1.54,1.42-2.41,1.98-1.24.79-2.21,1.38-3.15,1.93-2.8,1.62-5.1,2.84-7.25,3.86-2.63,1.24-5.11,2.21-7.58,2.94-.32.09-.64.19-.96.27l.07.27s.1-.02.15-.04c.08-.02.15-.04.22-.05,2.49-.68,5.06-1.62,7.65-2.8,2.21-1,4.54-2.21,7.33-3.8.62-.35,1.23-.71,1.84-1.06.37-.22.74-.45,1.09-.68l.43-.27.19-.12c.87-.54,1.76-1.1,2.5-1.82.41-.41.72-.81.94-1.23.11-.21.19-.44.28-.71.08-.27.15-.5.07-.78,0-.03-.02-.05-.03-.08.23.18.4.39.51.65.23.53.31,1.09.22,1.57-.13.69-.54,1.32-.92,1.85-1.7,2.36-4.24,4-6.26,5.17-2.57,1.48-5.32,2.78-8.17,3.87-2.82,1.07-5.75,1.93-8.71,2.55-1.47.31-2.97.56-4.47.75l-.4.05c-.57.08-1.17.15-1.74.17-.05,0-.1,0-.16,0-.56,0-.97-.1-1.22-.31-.14-.12-.22-.27-.25-.46,0-.09-.08-.19-.27-.19-.12,0-.28.05-.37.14-.05.05-.07.12-.06.18.08.75.77,1.13,2.04,1.13.25,0,.52-.01.83-.04,1.53-.15,3.11-.37,4.68-.65,3.08-.56,6.17-1.38,9.16-2.45,2.99-1.06,5.9-2.37,8.66-3.9,2.31-1.28,4.93-2.9,6.82-5.19.57-.7.95-1.26,1.21-1.82.32-.68.4-1.35.24-2.05-.12-.53-.31-.93-.6-1.22-.35-.36-.83-.55-1.17-.66-.25-.08-.63-.18-.9-.25h0c-.25-.08-.51-.12-.76-.15l-.13-.02c-.37-.05-.74-.09-1.11-.11-.29-.02-.6-.03-.9-.03h0Z"/>
      </g>
    </g>
  </g>
</svg>